<svg width="50" height="50" viewBox="0 0 50 50" fill="none" xmlns="http://www.w3.org/2000/svg">
<path d="M38.5417 50H11.4583C8.42041 49.9967 5.50786 48.7884 3.35972 46.6403C1.21159 44.4921 0.00330869 41.5796 0 38.5417L0 11.4583C0.00330869 8.42041 1.21159 5.50786 3.35972 3.35972C5.50786 1.21159 8.42041 0.00330869 11.4583 0L38.5417 0C41.5796 0.00330869 44.4921 1.21159 46.6403 3.35972C48.7884 5.50786 49.9967 8.42041 50 11.4583V38.5417C49.9967 41.5796 48.7884 44.4921 46.6403 46.6403C44.4921 48.7884 41.5796 49.9967 38.5417 50ZM11.4583 6.25C10.077 6.25 8.75224 6.79873 7.77549 7.77549C6.79873 8.75224 6.25 10.077 6.25 11.4583V38.5417C6.25 39.923 6.79873 41.2478 7.77549 42.2245C8.75224 43.2013 10.077 43.75 11.4583 43.75H38.5417C39.923 43.75 41.2478 43.2013 42.2245 42.2245C43.2013 41.2478 43.75 39.923 43.75 38.5417V11.4583C43.75 10.077 43.2013 8.75224 42.2245 7.77549C41.2478 6.79873 39.923 6.25 38.5417 6.25H11.4583ZM16.65 19.4562V30.5438C16.65 31.0316 16.7781 31.5108 17.0215 31.9336C17.265 32.3563 17.6151 32.7077 18.037 32.9526C18.4589 33.1975 18.9377 33.3273 19.4255 33.3291C19.9133 33.3308 20.3931 33.2044 20.8167 32.9625L31.9146 27.4188C32.3411 27.1752 32.6956 26.8231 32.9422 26.3984C33.1888 25.9736 33.3186 25.4912 33.3186 25C33.3186 24.5088 33.1888 24.0264 32.9422 23.6016C32.6956 23.1769 32.3411 22.8248 31.9146 22.5812L20.8167 17.0375C20.3931 16.7956 19.9133 16.6692 19.4255 16.6709C18.9377 16.6727 18.4589 16.8025 18.037 17.0474C17.6151 17.2923 17.265 17.6437 17.0215 18.0664C16.7781 18.4892 16.65 18.9684 16.65 19.4562Z" fill="white"/>
</svg>
